<?xml version="1.0" encoding="utf-8"?>
<!-- Generator: Adobe Illustrator 24.3.0, SVG Export Plug-In . SVG Version: 6.00 Build 0)  -->
<svg version="1.1" id="Layer_1" xmlns="http://www.w3.org/2000/svg" xmlns:xlink="http://www.w3.org/1999/xlink" x="0px" y="0px"
	 viewBox="0 0 1237.2 203.3" style="enable-background:new 0 0 1237.2 203.3;" xml:space="preserve">
<style type="text/css">
	.st0{fill:#231F20;}
	.st1{enable-background:new    ;}
</style>
<g>
	<path class="st0" d="M106.3,121.6H82.2V78.1h24c0.7,0,1.7,0,2.1,0s0.7,0,0.9,0.1c9.3,1.2,16.6,10.4,16.6,21.6s-7.4,20.5-16.8,21.7
		c-0.2,0-0.4,0.1-0.9,0.1S106.7,121.6,106.3,121.6z"/>
</g>
<g>
	<path class="st0" d="M54.2,123.3V50h52.1c13.8,0,18.3,3,18.3,3l31.3-30.3C112.8-8.2,52.8,1.6,21.8,44.8C-2.3,78.3-2.2,123.5,22,157
		L54.2,123.3z"/>
</g>
<g>
	<path class="st0" d="M177.2,43.7l-30.1,30.1c0,0,1.4,2.9,3.5,8.3c3,7.4,4,15.5,2.8,23.4c-1.2,9.6-4,21.1-13.6,30.9
		s-19,12.9-30.6,13.1s-37.9,0-37.9,0l-28.7,28.4C85.3,209.5,145.4,200.6,177,158C202.2,124.1,202.3,77.7,177.2,43.7z"/>
</g>
<g class="st1">
	<path d="M303.8,104.9h-45.9v39.2h-11.1V57.1h11.1v39.2h45.9V57.1h11.1v86.9h-11.1V104.9z"/>
	<path d="M337.7,57.1h11.1v86.9h-11.1V57.1z"/>
	<path d="M432.1,132.5v-27.7h-23.2v-7.6h32.8v41.3c-7.2,4.6-17.6,6.9-31.1,6.9c-13.7,0-24.1-3.8-31.1-11.5
		c-7.1-7.6-10.6-18.1-10.6-31.5c0-14.8,3.4-26.2,10.2-34.4c6.8-8.2,17.3-12.3,31.4-12.3c9.3,0,17.7,1.3,25.2,4v9.7
		c-7.7-2.9-15.8-4.3-24.3-4.3c-11.3,0-19.3,3.2-24.2,9.5c-4.9,6.3-7.3,15.6-7.3,27.8c0,11,2.5,19.3,7.6,25c5,5.7,13,8.5,23.8,8.5
		C419.1,136,426.1,134.8,432.1,132.5z"/>
	<path d="M518.8,104.9h-45.9v39.2h-11.1V57.1h11.1v39.2h45.9V57.1h11.1v86.9h-11.1V104.9z"/>
	<path d="M552.6,57.1h58.7v8.8h-47.7v30.4h42.8v8.6h-42.8v30.5h47.7v8.6h-58.7V57.1z"/>
</g>
<g class="st1">
	<path d="M691.2,100.1c-3.2,4.2-7.7,7-13.8,8.4c1.7,1,3,2.1,3.9,3.4c0.9,1.3,1.9,3.3,3.1,5.9l11.3,26.2h-11.3l-11.1-25.2
		c-1.3-2.9-2.8-4.9-4.5-5.9c-1.8-1.1-4.6-1.6-8.6-1.6h-18.4v32.8h-11.1V57.1H669c9.1,0,15.8,2.4,20.2,7.1c4.4,4.7,6.6,11.4,6.6,19.9
		C695.9,90.6,694.3,96,691.2,100.1z M684.8,84.1c0-12.1-5.8-18.2-17.4-18.2h-25.5v36.7h24C678.5,102.6,684.8,96.5,684.8,84.1z"/>
</g>
<g class="st1">
	<path d="M736.4,57.1h58.7v8.8h-47.7v30.4h42.8v8.6h-42.8v30.5h47.7v8.6h-58.7V57.1z"/>
</g>
<g class="st1">
	<path d="M876.9,133.8c-5.8,6.8-15,10.3-27.8,10.3h-34V57.1h34c12.7,0,21.9,3.4,27.7,10.3s8.7,18.1,8.7,33.7
		C885.5,116.1,882.7,127,876.9,133.8z M871.8,79.8c-1.8-5.1-4.7-8.7-8.6-10.7c-3.9-2.1-9.3-3.1-16.1-3.1h-20.9v69.5h20.9
		c6.5,0,11.7-0.9,15.6-2.8c3.9-1.9,6.9-5.3,8.8-10.3c2-4.9,3-12,3-21.2C874.5,92,873.6,84.8,871.8,79.8z"/>
</g>
<g class="st1">
	<path d="M922.7,57.1h38.9c13.9,0,24.4,3.5,31.5,10.5c7.2,7,10.7,18.2,10.7,33.5c0,14.7-3.6,25.5-10.7,32.5
		c-7.2,7-17.7,10.5-31.5,10.5h-38.9V57.1z M958.3,124.6c4.5,0,8.1-0.7,10.9-2c2.8-1.3,4.9-3.6,6.4-7c1.5-3.4,2.2-8.2,2.2-14.5
		c0-6.4-0.7-11.4-2-14.9c-1.4-3.6-3.4-6.1-6.3-7.5c-2.8-1.4-6.6-2.2-11.3-2.2h-10.3v48.1H958.3z"/>
	<path d="M1017.2,57.1h25.4v86.9h-25.4V57.1z"/>
	<path d="M1055.9,57.1h26.5l20.2,57.5l20.2-57.5h26.6l-33.3,86.9h-26.9L1055.9,57.1z"/>
	<path d="M1162.8,57.1h65.9v19.4h-40.5v14.2h35.5v19.7h-35.5v14.2h40.5v19.4h-65.9V57.1z"/>
</g>
</svg>
